<svg xmlns="http://www.w3.org/2000/svg" aria-hidden="true" style="position:absolute;width:0;height:0;overflow:hidden"><defs><symbol id="icon-vector" viewBox="0 0 44 32"><path fill="#fff" d="M43.414 17.414a2 2 0 0 0 0-2.828L30.686 1.858a2 2 0 1 0-2.828 2.828L39.172 16 27.858 27.314a2 2 0 1 0 2.828 2.828l12.728-12.728zM0 18h42v-4H0v4z" style="fill:var(--color1, #fff)"/></symbol><symbol id="icon-location" viewBox="0 0 32 32"><path fill="#fff" d="M4.75 11.25c0 5.557 4.243 11.587 7.986 16.797.89 1.238 1.742 2.423 2.484 3.536a.937.937 0 0 0 1.56 0c.741-1.112 1.594-2.298 2.484-3.536 3.744-5.21 7.986-11.24 7.986-16.797C27.25 5.046 22.204 0 16 0S4.75 5.046 4.75 11.25zm16.875 0c0 3.102-2.523 5.625-5.625 5.625s-5.625-2.523-5.625-5.625S12.898 5.625 16 5.625s5.625 2.523 5.625 5.625z" style="fill:var(--color1, #fff)"/><path fill="#fff" d="M16 15a3.75 3.75 0 1 0 0-7.5 3.75 3.75 0 0 0 0 7.5z" style="fill:var(--color1, #fff)"/></symbol><symbol id="icon-star" viewBox="0 0 32 32"><path fill="#ffc107" d="m16 .8 4.944 10.016L32 12.432l-8 7.792 1.888 11.008-9.888-5.2-9.888 5.2L8 20.224l-8-7.792 11.056-1.616L16 .8z" style="fill:var(--color2, #ffc107)"/></symbol><symbol id="icon-toggle_left" viewBox="0 0 17 32"><path fill="none" stroke="#fff" stroke-linecap="round" stroke-linejoin="round" stroke-width="2.783" d="M15.304 2.087 1.391 16l13.913 13.913" style="stroke:var(--color1, #fff)"/></symbol><symbol id="icon-toggle_rigth" viewBox="0 0 17 32"><path fill="none" stroke="#fff" stroke-linecap="round" stroke-linejoin="round" stroke-width="2.783" d="M1.391 29.913 15.304 16 1.391 2.087" style="stroke:var(--color1, #fff)"/></symbol><symbol id="icon-menu" viewBox="0 0 51 32"><path fill="#fff" d="M1.722 3.444a1.39 1.39 0 0 1 0-2.778h47.222a1.39 1.39 0 0 1 0 2.778H1.722zm0 13.889a1.39 1.39 0 0 1 0-2.778h47.222a1.39 1.39 0 0 1 0 2.778H1.722zm0 13.889a1.39 1.39 0 0 1 0-2.778h47.222a1.39 1.39 0 0 1 0 2.778H1.722z" style="fill:var(--color1, #fff)"/></symbol><symbol id="icon-pinterest" viewBox="0 0 31 32"><path fill="#fff" d="M31.03 16.086C31.263 7.204 24.126-.011 15.282.105 6.787.221-.078 7.242 0 15.737c.039 6.09 3.607 11.326 8.727 13.847a.424.424 0 0 0 .621-.427c-.039-1.009 0-2.056.194-2.909s.97-4.111 1.474-6.245a8.004 8.004 0 0 0 .078-3.181 5.467 5.467 0 0 1-.116-1.202c0-2.289 1.319-3.995 2.987-3.995 1.396 0 2.095 1.047 2.095 2.327 0 1.396-.892 3.53-1.358 5.508-.388 1.629.815 2.987 2.444 2.987 2.948 0 5.198-3.103 5.198-7.564 0-3.956-2.831-6.71-6.904-6.71-4.693 0-7.447 3.53-7.447 7.176 0 1.435.543 2.948 1.241 3.762.116.155.155.31.116.465-.116.504-.388 1.629-.465 1.862-.078.31-.233.349-.543.233-2.056-1.009-3.375-4.034-3.375-6.439 0-5.198 3.762-9.969 10.899-9.969 5.702 0 10.162 4.073 10.162 9.542 0 5.702-3.569 10.24-8.572 10.24-1.319 0-2.56-.543-3.297-1.28a.416.416 0 0 0-.698.194c-.271.97-.659 2.599-.815 3.103-.233.931-.737 2.017-1.28 2.987-.155.233 0 .582.271.621 1.28.31 2.599.504 3.956.465 8.223-.078 15.205-6.904 15.438-15.05z" style="fill:var(--color1, #fff)"/><path fill="#fff" d="M31.03 16.086C31.263 7.204 24.126-.011 15.282.105 6.787.221-.078 7.242 0 15.737c.039 6.09 3.607 11.326 8.727 13.847a.424.424 0 0 0 .621-.427c-.039-1.009 0-2.056.194-2.909s.97-4.111 1.474-6.245a8.004 8.004 0 0 0 .078-3.181 5.467 5.467 0 0 1-.116-1.202c0-2.289 1.319-3.995 2.987-3.995 1.396 0 2.095 1.047 2.095 2.327 0 1.396-.892 3.53-1.358 5.508-.388 1.629.815 2.987 2.444 2.987 2.948 0 5.198-3.103 5.198-7.564 0-3.956-2.831-6.71-6.904-6.71-4.693 0-7.447 3.53-7.447 7.176 0 1.435.543 2.948 1.241 3.762.116.155.155.31.116.465-.116.504-.388 1.629-.465 1.862-.078.31-.233.349-.543.233-2.056-1.009-3.375-4.034-3.375-6.439 0-5.198 3.762-9.969 10.899-9.969 5.702 0 10.162 4.073 10.162 9.542 0 5.702-3.569 10.24-8.572 10.24-1.319 0-2.56-.543-3.297-1.28a.416.416 0 0 0-.698.194c-.271.97-.659 2.599-.815 3.103-.233.931-.737 2.017-1.28 2.987-.155.233 0 .582.271.621 1.28.31 2.599.504 3.956.465 8.223-.078 15.205-6.904 15.438-15.05z" style="fill:var(--color1, #fff)"/></symbol><symbol id="icon-twitter" viewBox="0 0 31 32"><path fill="#fff" d="M27.896 7.924c-.931.403-1.893.683-2.917.807a4.965 4.965 0 0 0 2.234-2.824c-.993.59-2.079.993-3.227 1.241a5.092 5.092 0 0 0-8.813 3.475c0 .403.031.776.124 1.148-4.22-.186-7.944-2.234-10.457-5.306-1.8 3.227.217 5.896 1.551 6.796-.807 0-1.614-.248-2.296-.621 0 2.513 1.769 4.592 4.065 5.058-.497.155-1.614.248-2.296.093.652 2.017 2.544 3.506 4.748 3.537-1.738 1.365-4.282 2.451-7.54 2.11a14.36 14.36 0 0 0 7.82 2.296c9.371 0 14.46-7.758 14.46-14.46 0-.217 0-.434-.031-.652 1.055-.776 1.924-1.676 2.576-2.7z" style="fill:var(--color1, #fff)"/></symbol><symbol id="icon-instagram" viewBox="0 0 31 32"><path fill="#fff" d="M15.82 31.135h-.309a107.82 107.82 0 0 1-6.865-.189c-2.004-.122-3.833-.814-5.29-2.002C1.95 27.798.99 26.248.503 24.338c-.424-1.663-.447-3.295-.468-4.874A324.572 324.572 0 0 1 0 15.624c.003-1.371.019-2.713.035-3.846.022-1.579.044-3.211.468-4.874.487-1.91 1.447-3.46 2.853-4.606C4.813 1.11 6.642.418 8.646.296 10.832.163 13.08.101 15.517.107c2.433-.005 4.68.056 6.865.189 2.004.122 3.833.814 5.29 2.002 1.406 1.146 2.366 2.696 2.853 4.606.424 1.663.447 3.295.468 4.874.016 1.133.032 2.475.035 3.84v.006a324.572 324.572 0 0 1-.035 3.84c-.022 1.579-.044 3.211-.468 4.874-.487 1.91-1.447 3.46-2.853 4.606-1.457 1.188-3.286 1.88-5.29 2.002-2.093.127-4.243.189-6.562.189zm-.308-2.424c2.393.006 4.59-.055 6.724-.184 1.515-.092 2.829-.584 3.905-1.461.995-.811 1.68-1.931 2.036-3.327.353-1.384.374-2.87.393-4.308.015-1.125.032-2.458.035-3.81a320.16 320.16 0 0 0-.035-3.81c-.02-1.437-.04-2.924-.393-4.308-.356-1.396-1.041-2.516-2.036-3.327-1.076-.877-2.39-1.369-3.905-1.461-2.134-.13-4.331-.19-6.718-.185a105.4 105.4 0 0 0-6.724.185c-1.515.092-2.829.584-3.905 1.461-.995.811-1.68 1.931-2.036 3.327-.353 1.384-.374 2.87-.393 4.308-.015 1.126-.031 2.46-.035 3.813.003 1.347.019 2.681.035 3.807.02 1.437.04 2.924.393 4.308.356 1.396 1.041 2.516 2.036 3.327 1.076.877 2.39 1.369 3.905 1.461 2.134.13 4.332.191 6.718.185zm-.058-5.515c-4.177 0-7.576-3.398-7.576-7.576s3.399-7.576 7.576-7.576 7.576 3.398 7.576 7.576-3.398 7.576-7.576 7.576zm0-12.727c-2.84 0-5.152 2.311-5.152 5.152s2.311 5.151 5.152 5.151 5.152-2.311 5.152-5.152-2.311-5.152-5.152-5.152zm8.424-4.849a1.818 1.818 0 1 0 0 3.636 1.818 1.818 0 0 0 0-3.636z" style="fill:var(--color1, #fff)"/></symbol><symbol id="icon-facebook" viewBox="0 0 32 32"><path fill="#fff" d="M15.949.594c2.885.033 5.491.742 7.818 2.127a15.608 15.608 0 0 1 5.556 5.59c1.377 2.341 2.081 4.963 2.114 7.865-.082 3.971-1.334 7.362-3.757 10.175s-5.526 4.552-8.739 5.219V20.437h3.037l.687-4.375h-4.599v-2.866a2.483 2.483 0 0 1 .53-1.645c.368-.469 1.015-.715 1.943-.739h2.777V6.98c-.04-.013-.418-.064-1.134-.152a22.497 22.497 0 0 0-2.448-.152c-1.851.009-3.316.531-4.393 1.567s-1.627 2.534-1.651 4.495v3.325h-3.5v4.375h3.5v11.133c-3.945-.667-7.048-2.407-9.471-5.219S.544 20.148.462 16.177c.033-2.902.737-5.524 2.114-7.865a15.608 15.608 0 0 1 5.556-5.59C10.459 1.337 13.065.628 15.95.595z" style="fill:var(--color1, #fff)"/></symbol><symbol id="icon-logo" viewBox="0 0 160 32"><path d="M41.411 8.682v18.367h-3.46V8.682h-5.655v-2.94h14.74v2.94H41.41zM50.133 15.45c.339-.912.785-1.586 1.337-2.023.562-.437 1.255-.655 2.079-.655.446 0 .882.053 1.308.16.436.107.862.262 1.279.466l-1.134 2.678a2.755 2.755 0 0 0-.887-.422 3.5 3.5 0 0 0-1.047-.146c-1.047 0-1.798.422-2.253 1.266-.456.834-.683 2.241-.683 4.22v6.054h-3.154V13.222h3.154v2.227zM70.906 27.049h-3.154v-1.79c-.562.796-1.221 1.388-1.977 1.776-.746.388-1.604.582-2.573.582-1.948 0-3.484-.665-4.608-1.994-1.114-1.339-1.672-3.168-1.672-5.487 0-2.203.572-3.978 1.715-5.327 1.144-1.358 2.636-2.037 4.477-2.037 1.124 0 2.084.238 2.878.713a4.088 4.088 0 0 1 1.759 2.023v-2.256h3.154v13.797zm-3.067-6.942c0-1.426-.334-2.537-1.003-3.333-.659-.796-1.584-1.193-2.776-1.193s-2.132.412-2.82 1.237c-.678.815-1.018 1.95-1.018 3.406 0 1.465.33 2.595.988 3.391s1.589 1.193 2.791 1.193c1.134 0 2.055-.432 2.762-1.295.717-.863 1.076-1.999 1.076-3.405zM80.107 27.878l-7.225-14.626h3.445l3.009 6.942c.097.213.213.534.35.961s.276.936.421 1.528c.097-.417.209-.829.334-1.237.136-.417.295-.834.48-1.252l2.994-6.942h3.431l-7.24 14.626zM102.61 20.616H91.591c.078 1.29.461 2.299 1.149 3.027.688.718 1.603 1.077 2.747 1.077 1.017 0 1.865-.213 2.544-.64s1.27-1.116 1.774-2.067l2.66 1.484c-.775 1.387-1.734 2.421-2.878 3.1s-2.486 1.019-4.027 1.019c-2.209 0-3.969-.674-5.277-2.023s-1.962-3.148-1.962-5.399c0-2.164.674-3.939 2.02-5.326 1.357-1.397 3.096-2.096 5.219-2.096 2.219 0 3.949.636 5.19 1.906s1.86 3.051 1.86 5.341v.597zm-3.27-2.125c-.126-.99-.504-1.742-1.134-2.256-.63-.524-1.492-.786-2.587-.786-1.037 0-1.87.252-2.5.757s-1.072 1.266-1.323 2.285h7.545zM106.055 27.049V4.491h3.154v22.558h-3.154zM113.876 27.049V4.491h3.155v22.558h-3.155zM121.274 7.285c0-.534.194-.995.582-1.383a1.951 1.951 0 0 1 1.41-.582c.562 0 1.027.189 1.395.568.378.369.567.834.567 1.397s-.189 1.038-.567 1.426a1.897 1.897 0 0 1-1.395.568 1.95 1.95 0 0 1-1.41-.582 1.958 1.958 0 0 1-.582-1.412zm.422 19.764V13.252h3.154v13.797h-3.154zM142.338 27.049h-3.154v-1.79c-.562.796-1.222 1.388-1.977 1.776-.746.388-1.603.582-2.573.582-1.949 0-3.485-.665-4.608-1.994-1.114-1.339-1.672-3.168-1.672-5.487 0-2.203.571-3.978 1.715-5.327 1.144-1.358 2.637-2.037 4.477-2.037 1.125 0 2.085.238 2.879.713a4.083 4.083 0 0 1 1.759 2.023v-2.256h3.154v13.797zm-3.067-6.942c0-1.426-.334-2.537-1.002-3.333-.659-.796-1.585-1.193-2.777-1.193s-2.131.412-2.819 1.237c-.679.815-1.018 1.95-1.018 3.406 0 1.465.33 2.595.989 3.391.659.796 1.59 1.193 2.791 1.193 1.135 0 2.055-.432 2.762-1.295.717-.863 1.075-1.999 1.075-3.405zM146.698 27.049V13.252h2.966v2.256c.631-.951 1.371-1.645 2.224-2.081s1.89-.655 3.112-.655c1.026 0 1.899.165 2.616.495.727.32 1.294.8 1.701 1.441.242.378.417.82.523 1.324s.16 1.387.16 2.649v8.368h-3.184v-7.088c0-1.814-.223-3.017-.669-3.609-.437-.601-1.216-.902-2.341-.902-.736 0-1.394.136-1.976.408a3.263 3.263 0 0 0-1.352 1.15c-.233.33-.398.757-.495 1.281-.087.514-.13 1.339-.13 2.474v6.287h-3.155zM9.876 23.007l4.046 3.988 4.046-3.988-4.046-3.988-4.046 3.988zm4.045-19.355v.006a4.545 4.545 0 0 0-3.198 1.305l-.004-.004a4.426 4.426 0 0 0-.004 6.308h.006l3.2 3.153 3.198-3.153h.006a4.415 4.415 0 0 0 1.326-3.152h-.006a4.416 4.416 0 0 0-1.324-3.153 4.552 4.552 0 0 0-3.2-1.311zm6.378 21.654-6.378 6.287-6.378-6.287-5.212 5.138-2.332-2.299L11.59 16.72l-3.198-3.152.004-.004A7.623 7.623 0 0 1 6.1 8.117c0-1.969.764-3.94 2.291-5.445v-.004A7.854 7.854 0 0 1 13.919.409v.006c2.004 0 4.007.752 5.53 2.253a7.628 7.628 0 0 1 2.29 5.451h-.006a7.627 7.627 0 0 1-2.287 5.447l.004.004-3.198 3.15 11.589 11.425-2.332 2.299-5.212-5.138z" /></symbol></defs></svg>