<svg xmlns="http://www.w3.org/2000/svg" width="136" height="24" fill="none"><path fill="#FFC107" d="m12 2 3.09 6.26L22 9.27l-5 4.87 1.18 6.88L12 17.77l-6.18 3.25L7 14.14 2 9.27l6.91-1.01L12 2ZM40 2l3.09 6.26L50 9.27l-5 4.87 1.18 6.88L40 17.77l-6.18 3.25L35 14.14l-5-4.87 6.91-1.01L40 2ZM68 2l3.09 6.26L78 9.27l-5 4.87 1.18 6.88L68 17.77l-6.18 3.25L63 14.14l-5-4.87 6.91-1.01L68 2ZM96 2l3.09 6.26L106 9.27l-5 4.87 1.18 6.88L96 17.77l-6.18 3.25L91 14.14l-5-4.87 6.91-1.01L96 2ZM124 2l3.09 6.26L134 9.27l-5 4.87 1.18 6.88-6.18-3.25-6.18 3.25 1.18-6.88-5-4.87 6.91-1.01L124 2Z"/></svg>