<svg aria-hidden="true" style="position: absolute; width: 0; height: 0; overflow: hidden;" version="1.1" xmlns="http://www.w3.org/2000/svg" xmlns:xlink="http://www.w3.org/1999/xlink">
<defs>
<symbol id="icon-arrow-rigth" viewBox="0 0 17 32">
<path fill="none" stroke="#fff" style="stroke: var(--color1, #fff)" stroke-linejoin="round" stroke-linecap="round" stroke-miterlimit="4" stroke-width="2.9091" d="M1.455 30.545l14.545-14.545-14.545-14.545"></path>
</symbol>
<symbol id="icon-arrow-left" viewBox="0 0 17 32">
<path fill="none" stroke="#fff" style="stroke: var(--color1, #fff)" stroke-linejoin="round" stroke-linecap="round" stroke-miterlimit="4" stroke-width="2.9091" d="M16 1.455l-14.545 14.545 14.545 14.545"></path>
</symbol>
<symbol id="icon-arrow" viewBox="0 0 56 32">
<path fill="#ff7757" style="fill: var(--color2, #ff7757)" d="M55.414 17.414c0.362-0.362 0.586-0.862 0.586-1.414s-0.224-1.052-0.586-1.414l-12.728-12.728c-0.364-0.377-0.874-0.611-1.439-0.611-1.105 0-2 0.895-2 2 0 0.565 0.234 1.074 0.61 1.438l0.001 0.001 11.314 11.314-11.314 11.314c-0.347 0.359-0.561 0.849-0.561 1.389 0 1.105 0.895 2 2 2 0.54 0 1.030-0.214 1.39-0.562l-0.001 0.001 12.728-12.728zM0 18h54v-4h-54v4z"></path>
</symbol>
<symbol id="icon-burger" viewBox="0 0 51 32">
<path fill="#fff" style="fill: var(--color1, #fff)" d="M1.723 3.444c-0.013 0-0.028 0.001-0.043 0.001-0.767 0-1.389-0.622-1.389-1.389s0.622-1.389 1.389-1.389c0.015 0 0.030 0 0.045 0.001l-0.002-0h47.221c0.749 0.024 1.346 0.636 1.346 1.389s-0.598 1.365-1.344 1.389l-0.002 0h-47.221zM1.723 17.333c-0.749-0.024-1.346-0.637-1.346-1.389s0.598-1.365 1.344-1.389l0.002-0h47.221c0.749 0.024 1.346 0.636 1.346 1.389s-0.598 1.365-1.344 1.389l-0.002 0h-47.221zM1.723 31.223c-0.767 0-1.389-0.622-1.389-1.389s0.622-1.389 1.389-1.389h47.221c0.767 0 1.389 0.622 1.389 1.389s-0.622 1.389-1.389 1.389h-47.221z"></path>
</symbol>
<symbol id="icon-facebook" viewBox="0 0 32 32">
<path fill="#fff" style="fill: var(--color1, #fff)" d="M15.949 0.594c2.885 0.033 5.49 0.742 7.818 2.127 2.311 1.381 4.187 3.268 5.515 5.517l0.040 0.073c1.377 2.34 2.082 4.962 2.114 7.864-0.081 3.971-1.334 7.363-3.757 10.175s-5.526 4.552-8.74 5.219v-11.133h3.038l0.687-4.375h-4.6v-2.866c-0.001-0.032-0.002-0.069-0.002-0.106 0-0.583 0.2-1.12 0.536-1.544l-0.004 0.005c0.368-0.469 1.016-0.715 1.944-0.74h2.777v-3.831c-0.040-0.013-0.418-0.063-1.135-0.152-0.728-0.090-1.577-0.145-2.438-0.152l-0.009-0c-1.851 0.009-3.316 0.53-4.393 1.567-1.077 1.035-1.627 2.534-1.65 4.495v3.325h-3.5v4.375h3.5v11.133c-3.945-0.667-7.048-2.407-9.471-5.22-2.423-2.811-3.676-6.203-3.759-10.174 0.033-2.902 0.738-5.524 2.114-7.865 1.368-2.322 3.244-4.209 5.485-5.551l0.071-0.039c2.328-1.384 4.934-2.093 7.82-2.126z"></path>
</symbol>
<symbol id="icon-instagram" viewBox="0 0 31 32">
<path  d="M15.821 31.135h-0.309c-0.138 0.001-0.301 0.001-0.464 0.001-2.252 0-4.488-0.069-6.705-0.205l0.304 0.015c-2.003-0.122-3.832-0.815-5.29-2.002-1.406-1.146-2.366-2.696-2.853-4.606-0.424-1.663-0.446-3.295-0.468-4.876-0.017-1.080-0.030-2.427-0.035-3.775l-0-0.064c0.003-1.37 0.019-2.713 0.035-3.846 0.021-1.579 0.045-3.211 0.468-4.874 0.488-1.91 1.448-3.46 2.853-4.606 1.457-1.189 3.287-1.881 5.291-2.002 2.185-0.133 4.433-0.195 6.87-0.189 2.434-0.006 4.68 0.056 6.865 0.189 2.004 0.121 3.833 0.815 5.29 2.002 1.406 1.146 2.366 2.696 2.854 4.606 0.424 1.663 0.446 3.295 0.468 4.874 0.015 1.133 0.032 2.476 0.035 3.84v0.006c-0.005 1.41-0.017 2.757-0.038 4.102l0.003-0.262c-0.022 1.579-0.045 3.212-0.468 4.875-0.488 1.91-1.448 3.46-2.854 4.606-1.456 1.188-3.285 1.881-5.29 2.002-2.093 0.127-4.243 0.189-6.562 0.189zM15.511 28.711c0.138 0.001 0.302 0.001 0.466 0.001 2.202 0 4.387-0.067 6.555-0.2l-0.298 0.015c1.516-0.092 2.83-0.584 3.905-1.461 0.995-0.812 1.68-1.931 2.036-3.327 0.354-1.385 0.374-2.87 0.394-4.308 0.015-1.125 0.031-2.458 0.035-3.81-0.004-1.352-0.019-2.684-0.035-3.81-0.019-1.437-0.040-2.924-0.394-4.307-0.356-1.396-1.041-2.516-2.036-3.327-1.076-0.878-2.389-1.369-3.905-1.461-1.872-0.118-4.059-0.185-6.261-0.185-0.161 0-0.321 0-0.482 0.001l0.025-0c-2.392-0.006-4.59 0.054-6.724 0.184-1.515 0.092-2.829 0.584-3.905 1.461-0.995 0.811-1.679 1.93-2.036 3.326-0.353 1.385-0.373 2.87-0.393 4.308-0.017 1.069-0.030 2.407-0.035 3.747l-0 0.066c0.003 1.348 0.019 2.681 0.035 3.807 0.019 1.437 0.040 2.924 0.393 4.308 0.357 1.396 1.041 2.515 2.036 3.326 1.076 0.878 2.39 1.369 3.905 1.461 2.134 0.13 4.333 0.191 6.718 0.184zM15.453 23.196c-4.177 0-7.575-3.399-7.575-7.576s3.399-7.575 7.576-7.575 7.575 3.398 7.575 7.575-3.398 7.576-7.575 7.576zM15.453 10.469c-2.843 0.004-5.147 2.308-5.151 5.151v0c0.003 2.844 2.308 5.149 5.152 5.152h0c2.844-0.004 5.148-2.308 5.151-5.152v-0c-0.004-2.843-2.308-5.147-5.151-5.151h-0zM23.878 5.62c-1.004 0-1.818 0.814-1.818 1.818s0.814 1.818 1.818 1.818v0c1.004 0 1.818-0.814 1.818-1.818s-0.814-1.818-1.818-1.818v0z"></path>
</symbol>
<symbol id="icon-local" viewBox="0 0 24 32">
<path fill="#fff" style="fill: var(--color1, #fff)" d="M0.751 11.251c0 5.556 4.241 11.587 7.987 16.796 0.589 0.786 1.406 1.938 2.203 3.104l0.279 0.432c0.17 0.253 0.456 0.418 0.78 0.418s0.61-0.164 0.778-0.414l0.002-0.003c0.741-1.112 1.593-2.299 2.484-3.536 3.744-5.211 7.987-11.24 7.987-16.797 0-6.203-5.048-11.249-11.251-11.249-6.204 0-11.251 5.047-11.251 11.251zM17.625 11.251c-0.005 3.104-2.521 5.62-5.625 5.623h-0c-3.106-0.003-5.622-2.52-5.625-5.625v-0c0.005-3.104 2.521-5.618 5.625-5.621h0c3.105 0.003 5.622 2.519 5.625 5.624v0z"></path>
<path fill="#fff" style="fill: var(--color1, #fff)" d="M12 15c0.021 0 0.046 0.001 0.071 0.001 2.071 0 3.751-1.679 3.751-3.751s-1.679-3.751-3.751-3.751c-0.025 0-0.050 0-0.074 0.001l0.004-0c-2.041 0.040-3.68 1.703-3.68 3.75s1.639 3.71 3.676 3.75l0.004 0z"></path>
</symbol>
<symbol id="icon-pinterest" viewBox="0 0 31 32">
<path  d="M31.030 16.086c0.233-8.882-6.904-16.097-15.748-15.981-8.495 0.116-15.36 7.137-15.282 15.632 0.039 6.090 3.607 11.326 8.727 13.847 0.31 0.155 0.659-0.078 0.621-0.427-0.039-1.009 0-2.056 0.194-2.909s0.97-4.111 1.474-6.245c0.233-1.047 0.271-2.133 0.078-3.181-0.078-0.349-0.116-0.737-0.116-1.202 0-2.289 1.319-3.995 2.987-3.995 1.396 0 2.095 1.047 2.095 2.327 0 1.396-0.892 3.53-1.358 5.508-0.388 1.629 0.815 2.987 2.444 2.987 2.948 0 5.198-3.103 5.198-7.564 0-3.956-2.832-6.71-6.904-6.71-4.693 0-7.447 3.53-7.447 7.176 0 1.435 0.543 2.948 1.241 3.762 0.116 0.155 0.155 0.31 0.116 0.465-0.116 0.504-0.388 1.629-0.465 1.862-0.078 0.31-0.233 0.349-0.543 0.233-2.056-1.009-3.375-4.034-3.375-6.439 0-5.198 3.762-9.969 10.899-9.969 5.702 0 10.162 4.073 10.162 9.542 0 5.702-3.569 10.24-8.572 10.24-1.319 0-2.56-0.543-3.297-1.28-0.075-0.075-0.179-0.122-0.294-0.122-0.194 0-0.357 0.133-0.403 0.313l-0.001 0.003c-0.271 0.97-0.659 2.599-0.815 3.103-0.233 0.931-0.737 2.017-1.28 2.987-0.155 0.233 0 0.582 0.271 0.621 1.28 0.31 2.599 0.504 3.956 0.465 8.223-0.078 15.205-6.904 15.438-15.050z"></path>
</symbol>
<symbol id="icon-star" viewBox="0 0 181 32">
<path fill="#ffc107" style="fill: var(--color3, #ffc107)" d="M16 2.667l4.12 8.347 9.213 1.347-6.667 6.493 1.573 9.173-8.24-4.333-8.24 4.333 1.573-9.173-6.667-6.493 9.213-1.347 4.12-8.347zM53.333 2.667l4.12 8.347 9.213 1.347-6.667 6.493 1.573 9.173-8.24-4.333-8.24 4.333 1.573-9.173-6.667-6.493 9.213-1.347 4.12-8.347zM90.667 2.667l4.12 8.347 9.213 1.347-6.667 6.493 1.573 9.173-8.24-4.333-8.24 4.333 1.573-9.173-6.667-6.493 9.213-1.347 4.12-8.347zM128 2.667l4.12 8.347 9.213 1.347-6.667 6.493 1.573 9.173-8.24-4.333-8.24 4.333 1.573-9.173-6.667-6.493 9.213-1.347 4.12-8.347zM165.333 2.667l4.12 8.347 9.213 1.347-6.667 6.493 1.573 9.173-8.24-4.333-8.24 4.333 1.573-9.173-6.667-6.493 9.213-1.347 4.12-8.347z"></path>
</symbol>
<symbol id="icon-twitter" viewBox="0 0 38 32">
<path  d="M37.481 4.614c-1.396 0.605-2.839 1.024-4.375 1.21 1.591-0.945 2.782-2.423 3.337-4.183l0.014-0.053c-1.489 0.884-3.119 1.489-4.841 1.862-1.398-1.493-3.381-2.424-5.581-2.424-4.218 0-7.637 3.419-7.638 7.637v0c0 0.605 0.047 1.164 0.186 1.722-6.33-0.279-11.916-3.351-15.686-7.959-2.7 4.841 0.326 8.844 2.327 10.193-1.21 0-2.42-0.372-3.444-0.931 0 3.77 2.653 6.889 6.097 7.587-0.745 0.233-2.42 0.372-3.444 0.14 0.977 3.025 3.817 5.26 7.121 5.306-2.607 2.048-6.423 3.677-11.311 3.165 3.299 2.16 7.341 3.444 11.682 3.444 0.017 0 0.033-0 0.050-0h-0.003c14.057 0 21.69-11.636 21.69-21.69 0-0.326 0-0.652-0.047-0.977 1.583-1.164 2.886-2.513 3.863-4.049z"></path>
</symbol>
<symbol id="icon-Logo" viewBox="0 0 159 32">
<path fill="#fff" style="fill: var(--color1, #fff)" d="M41.235 8.58v18.288h-3.445v-18.288h-5.631v-2.927h14.677v2.927h-5.602z"></path>
<path fill="#fff" style="fill: var(--color1, #fff)" d="M49.92 15.318c0.338-0.908 0.782-1.58 1.332-2.014 0.56-0.435 1.25-0.652 2.070-0.652 0.444 0 0.878 0.053 1.303 0.159 0.434 0.106 0.859 0.261 1.274 0.464l-1.129 2.666c-0.27-0.193-0.565-0.333-0.883-0.42-0.309-0.097-0.656-0.145-1.042-0.145-1.042 0-1.79 0.42-2.244 1.261-0.453 0.831-0.68 2.232-0.68 4.203v6.028h-3.141v-13.767h3.141v2.217z"></path>
<path fill="#fff" style="fill: var(--color1, #fff)" d="M70.604 26.868h-3.141v-1.782c-0.56 0.792-1.216 1.382-1.969 1.768-0.743 0.386-1.597 0.58-2.562 0.58-1.94 0-3.469-0.662-4.588-1.985-1.11-1.333-1.665-3.154-1.665-5.463 0-2.193 0.569-3.961 1.708-5.304 1.139-1.353 2.625-2.029 4.458-2.029 1.119 0 2.075 0.237 2.866 0.71 0.801 0.464 1.385 1.135 1.751 2.014v-2.246h3.141v13.738zM67.55 19.956c0-1.42-0.333-2.526-0.999-3.319-0.656-0.792-1.578-1.188-2.765-1.188s-2.123 0.411-2.808 1.232c-0.676 0.812-1.013 1.942-1.013 3.391 0 1.459 0.328 2.584 0.984 3.377s1.583 1.188 2.779 1.188c1.129 0 2.046-0.43 2.75-1.29 0.714-0.86 1.071-1.99 1.071-3.391z"></path>
<path fill="#fff" style="fill: var(--color1, #fff)" d="M79.766 27.694l-7.194-14.564h3.431l2.996 6.912c0.097 0.213 0.212 0.531 0.348 0.956s0.275 0.932 0.419 1.522c0.097-0.415 0.208-0.826 0.333-1.232 0.135-0.415 0.294-0.831 0.478-1.246l2.981-6.912h3.416l-7.209 14.564z"></path>
<path fill="#fff" style="fill: var(--color1, #fff)" d="M102.173 20.463h-10.972c0.078 1.285 0.459 2.29 1.144 3.014 0.685 0.715 1.597 1.072 2.736 1.072 1.013 0 1.857-0.212 2.533-0.638s1.264-1.111 1.766-2.058l2.648 1.478c-0.771 1.381-1.727 2.41-2.866 3.087s-2.475 1.014-4.010 1.014c-2.2 0-3.952-0.671-5.254-2.014s-1.954-3.135-1.954-5.376c0-2.154 0.671-3.922 2.012-5.304 1.351-1.391 3.083-2.087 5.196-2.087 2.21 0 3.933 0.633 5.168 1.898s1.853 3.038 1.853 5.318v0.594zM98.917 18.347c-0.126-0.985-0.502-1.734-1.13-2.246-0.627-0.522-1.486-0.783-2.576-0.783-1.032 0-1.862 0.251-2.489 0.754s-1.067 1.261-1.317 2.275h7.513z"></path>
<path fill="#fff" style="fill: var(--color1, #fff)" d="M105.604 26.868v-22.462h3.141v22.462h-3.141z"></path>
<path fill="#fff" style="fill: var(--color1, #fff)" d="M113.391 26.868v-22.462h3.141v22.462h-3.141z"></path>
<path fill="#fff" style="fill: var(--color1, #fff)" d="M120.758 7.189c0-0.531 0.193-0.99 0.579-1.377 0.396-0.386 0.863-0.58 1.404-0.58 0.56 0 1.023 0.188 1.39 0.565 0.376 0.367 0.564 0.831 0.564 1.391s-0.188 1.034-0.564 1.42c-0.376 0.377-0.84 0.565-1.39 0.565-0.541 0-1.008-0.193-1.404-0.58-0.386-0.396-0.579-0.865-0.579-1.406zM121.179 26.868v-13.738h3.141v13.738h-3.141z"></path>
<path fill="#fff" style="fill: var(--color1, #fff)" d="M141.733 26.868h-3.141v-1.782c-0.56 0.792-1.216 1.382-1.968 1.768-0.743 0.386-1.597 0.58-2.562 0.58-1.94 0-3.469-0.662-4.588-1.985-1.11-1.333-1.665-3.154-1.665-5.463 0-2.193 0.569-3.961 1.708-5.304 1.138-1.353 2.625-2.029 4.458-2.029 1.12 0 2.075 0.237 2.866 0.71 0.801 0.464 1.385 1.135 1.751 2.014v-2.246h3.141v13.738zM138.678 19.956c0-1.42-0.333-2.526-0.999-3.319-0.656-0.792-1.578-1.188-2.765-1.188s-2.123 0.411-2.808 1.232c-0.675 0.812-1.013 1.942-1.013 3.391 0 1.459 0.328 2.584 0.984 3.377s1.583 1.188 2.779 1.188c1.13 0 2.046-0.43 2.751-1.29 0.714-0.86 1.071-1.99 1.071-3.391z"></path>
<path fill="#fff" style="fill: var(--color1, #fff)" d="M146.075 26.868v-13.738h2.953v2.246c0.628-0.947 1.366-1.637 2.215-2.072s1.882-0.652 3.098-0.652c1.023 0 1.891 0.164 2.605 0.493 0.724 0.319 1.289 0.797 1.694 1.435 0.241 0.377 0.415 0.816 0.521 1.319s0.159 1.382 0.159 2.637v8.333h-3.17v-7.057c0-1.807-0.222-3.005-0.666-3.594-0.434-0.599-1.211-0.898-2.331-0.898-0.733 0-1.389 0.135-1.968 0.406-0.569 0.271-1.018 0.652-1.346 1.145-0.232 0.328-0.396 0.754-0.492 1.275-0.086 0.512-0.13 1.333-0.13 2.464v6.26h-3.141z"></path>
<path fill="#fff" style="fill: var(--color1, #fff)" d="M9.834 22.844l4.028 3.971 4.028-3.971-4.028-3.971-4.028 3.971zM13.862 3.571v0.006c-1.153 0-2.306 0.434-3.184 1.3l-0.004-0.004c-0.876 0.866-1.317 2.005-1.317 3.143 0 1.141 0.438 2.277 1.312 3.139h0.006l3.186 3.139 3.184-3.139h0.006c0.88-0.868 1.32-2.005 1.32-3.139h-0.006c0-1.137-0.44-2.273-1.319-3.139-0.884-0.87-2.037-1.306-3.186-1.306zM20.212 25.133l-6.35 6.26-6.35-6.26-5.189 5.116-2.322-2.289 11.542-11.376-3.184-3.139 0.004-0.004c-1.524-1.501-2.286-3.466-2.286-5.424 0-1.961 0.761-3.923 2.282-5.422v-0.004c1.52-1.499 3.513-2.249 5.504-2.249v0.006c1.995 0 3.99 0.748 5.506 2.243 1.52 1.499 2.28 3.464 2.28 5.428h-0.006c0 1.963-0.759 3.925-2.278 5.424l0.004 0.004-3.184 3.137 11.54 11.376-2.322 2.289-5.189-5.116z"></path>
</symbol>
</defs>
</svg>
